<svg width="192" height="86" viewBox="0 0 192 86" fill="none" xmlns="http://www.w3.org/2000/svg">
<path d="M7.84845 7.68967C7.15495 7.77751 6.08697 8.4294 6.47995 9.76554C6.6094 10.2094 6.89143 10.5885 7.23817 10.8983C9.92433 13.2931 12.592 15.7158 14.9638 18.4435C15.0655 18.5591 15.1995 18.6423 15.2966 18.7579C17.5251 21.3609 17.2153 22.7617 14.7002 25.0364C12.5781 26.9597 10.174 28.5085 8.10274 30.4781C7.63578 30.9219 7.09948 31.3334 7.29828 32.1194C7.72363 33.7884 11.9077 32.9885 13.905 31.8697C16.3323 30.5104 16.4941 30.3902 17.7701 29.5488C19.2357 28.5825 20.4285 27.2926 21.6583 25.9981C24.2844 23.2426 24.6126 21.3655 22.2779 18.5545C20.6921 16.6451 16.6929 12.7291 13.3317 10.3712C10.4144 8.32306 7.98715 7.6758 7.84845 7.68967Z" fill="white"/>
<path d="M47.5213 20.2188C47.5768 17.8563 45.7367 15.9006 43.4066 15.8451C41.2937 15.7943 39.019 17.9349 38.9774 20.0107C38.9358 22.0912 41.118 24.3937 43.1893 24.463C45.2605 24.5277 47.4705 22.364 47.5213 20.2188Z" fill="white"/>
<path d="M10.0123 25.8038C13.059 25.7484 14.1316 24.0377 14.3166 21.6567C14.4784 19.5577 12.3147 17.4032 10.2249 17.3293C8.04734 17.2507 5.90674 19.3635 5.90211 21.592C5.89749 23.9961 7.61274 25.753 10.0123 25.8038Z" fill="white"/>
<path d="M30.1376 4.15718C30.1746 1.80853 28.4917 0.0331755 26.1939 0.000812172C23.4014 -0.0407978 21.885 1.51727 21.8341 4.48544C21.8018 6.36714 23.7806 8.29507 25.8241 8.37366C28.0895 8.45226 30.1007 6.49197 30.1376 4.15718Z" fill="white"/>
<path d="M27.4607 41.7863C29.851 41.8279 31.4692 40.1543 31.4969 37.6068C31.5247 35.2859 29.814 33.5106 27.5116 33.4689C25.1861 33.4273 23.309 35.2905 23.3044 37.6392C23.2998 40.0248 25.0243 41.7447 27.4607 41.7863Z" fill="white"/>
<path d="M39.8095 1.75776C39.7171 1.06426 39.0606 0.000891775 37.7244 0.398498C37.2806 0.532575 36.9015 0.814599 36.5963 1.16135C34.2153 3.86137 31.8112 6.54291 29.0973 8.92854C28.9817 9.03026 28.8985 9.16433 28.7829 9.26604C26.1938 11.5084 24.793 11.2078 22.4998 8.70662C20.5626 6.59376 18.9999 4.19888 17.0211 2.1415C16.5727 1.67454 16.1566 1.14285 15.3752 1.3509C13.7108 1.79012 14.5338 5.96499 15.6619 7.95764C17.035 10.3803 17.1552 10.5375 18.0059 11.8089C18.9814 13.2652 20.2806 14.4534 21.5798 15.6786C24.3538 18.2908 26.2308 18.6052 29.0279 16.2519C30.9281 14.6568 34.821 10.6346 37.1604 7.25952C39.1946 4.32833 39.828 1.89646 39.8095 1.75776Z" fill="white"/>
<path d="M45.7135 33.8388C46.407 33.751 47.475 33.0991 47.082 31.763C46.9526 31.3191 46.6706 30.94 46.3238 30.6303C43.6376 28.2354 40.97 25.8127 38.5982 23.085C38.4965 22.9694 38.3624 22.8862 38.2653 22.7706C36.0369 20.1677 36.3467 18.7668 38.8618 16.4921C40.9839 14.5688 43.388 13.02 45.4592 11.0504C45.9262 10.6066 46.4625 10.1951 46.2637 9.40916C45.8384 7.74014 41.6542 8.53998 39.657 9.65882C37.2297 11.0181 37.0679 11.1383 35.7919 11.9797C34.3263 12.946 33.1334 14.2359 31.9036 15.5305C29.2776 18.286 28.9493 20.163 31.2841 22.974C32.8699 24.8835 36.8691 28.7994 40.2303 31.1573C43.143 33.2054 45.5702 33.8573 45.7135 33.8388Z" fill="white"/>
<path d="M13.8311 39.9184C13.9282 40.6119 14.5986 41.6706 15.9301 41.2499C16.3693 41.1112 16.7484 40.8245 17.0489 40.4732C19.3976 37.7454 21.774 35.0361 24.4601 32.6181C24.5757 32.5164 24.6543 32.3823 24.7699 32.2806C27.3312 30.0059 28.7367 30.2926 31.0576 32.7661C33.0179 34.8558 34.6084 37.2322 36.6103 39.2665C37.0633 39.7288 37.4841 40.2559 38.2654 40.0386C39.9252 39.5808 39.0514 35.4152 37.9002 33.4364C36.4993 31.0323 36.3745 30.8751 35.5099 29.6129C34.5205 28.1658 33.2075 26.9961 31.8945 25.7848C29.0927 23.205 27.211 22.9137 24.4416 25.2948C22.56 26.9129 18.7133 30.9768 16.4155 34.3842C14.4183 37.3385 13.8126 39.7797 13.8311 39.9184Z" fill="white"/>
<path d="M66.1349 36.2525C63.8602 36.2525 61.8167 35.7208 60.009 34.6574C58.2012 33.594 56.7726 32.1423 55.7185 30.3022C54.669 28.4621 54.1281 26.3909 54.1003 24.0885V4.12955C54.1003 3.45917 54.313 2.91824 54.7337 2.51139C55.1545 2.10454 55.6908 1.89648 56.3334 1.89648C57.0038 1.89648 57.5447 2.09991 57.9516 2.51139C58.3584 2.91824 58.5665 3.45917 58.5665 4.12955V15.9468C59.5882 14.7216 60.8227 13.7507 62.2652 13.0387C63.7076 12.3221 65.2934 11.9661 67.0133 11.9661C69.1447 11.9661 71.0541 12.4978 72.7462 13.5658C74.4384 14.6291 75.7745 16.0762 76.75 17.8978C77.7256 19.7194 78.2156 21.7861 78.2156 24.0885C78.2156 26.3955 77.684 28.4668 76.616 30.3022C75.5526 32.1423 74.1147 33.594 72.307 34.6574C70.4947 35.7208 68.4373 36.2525 66.1349 36.2525ZM66.1349 32.3134C67.6236 32.3134 68.9505 31.9574 70.1156 31.2408C71.2806 30.5241 72.2099 29.5394 72.8942 28.2865C73.5784 27.0335 73.9206 25.6327 73.9206 24.0839C73.9206 22.5073 73.5784 21.1064 72.8942 19.8812C72.2099 18.6561 71.2806 17.6852 70.1156 16.9732C68.9505 16.2565 67.619 15.9006 66.1349 15.9006C64.6739 15.9006 63.3563 16.2565 62.1727 16.9732C60.9891 17.6898 60.0644 18.6561 59.3941 19.8812C58.7237 21.1064 58.3862 22.5073 58.3862 24.0839C58.3862 25.6327 58.7191 27.0335 59.3941 28.2865C60.0644 29.5394 60.9937 30.5241 62.1727 31.2408C63.3563 31.9574 64.6739 32.3134 66.1349 32.3134Z" fill="white" stroke="white" stroke-width="1.1269" stroke-miterlimit="10"/>
<path d="M96.1126 36.2524C93.6899 36.2524 91.5401 35.7346 89.6584 34.699C87.7767 33.6633 86.3019 32.2347 85.2385 30.4085C84.1751 28.5869 83.6388 26.4926 83.6388 24.13C83.6388 21.7398 84.1428 19.6315 85.1507 17.8053C86.1585 15.9837 87.5502 14.5505 89.3301 13.5149C91.1101 12.4792 93.1536 11.9614 95.4561 11.9614C97.7307 11.9614 99.6864 12.4654 101.318 13.4733C102.95 14.4811 104.199 15.8681 105.059 17.6296C105.919 19.3957 106.349 21.43 106.349 23.7324C106.349 24.2872 106.159 24.7449 105.78 25.1102C105.401 25.4754 104.92 25.6557 104.337 25.6557H86.6995V22.1559H104.203L102.41 23.381C102.382 21.9247 102.086 20.6163 101.536 19.4651C100.981 18.3139 100.195 17.4031 99.1732 16.7281C98.1515 16.0577 96.9124 15.7202 95.4561 15.7202C93.7917 15.7202 92.3723 16.0854 91.1887 16.8159C90.0052 17.5464 89.1082 18.545 88.4979 19.8118C87.8877 21.0786 87.5779 22.5165 87.5779 24.1208C87.5779 25.7251 87.9431 27.1537 88.6736 28.4112C89.4041 29.6642 90.4074 30.6582 91.6927 31.3887C92.978 32.1191 94.4482 32.4844 96.1126 32.4844C97.0187 32.4844 97.9434 32.3179 98.8912 31.9804C99.839 31.6476 100.606 31.2592 101.189 30.82C101.628 30.501 102.1 30.3299 102.613 30.316C103.122 30.3022 103.57 30.4547 103.949 30.7738C104.444 31.213 104.707 31.6938 104.735 32.2162C104.763 32.7433 104.532 33.1964 104.037 33.5709C103.043 34.3568 101.813 34.9995 100.338 35.4988C98.8588 36.0074 97.4533 36.2524 96.1126 36.2524Z" fill="white" stroke="white" stroke-width="1.1269" stroke-miterlimit="10"/>
<path d="M111.032 16.7789C110.417 16.7789 109.922 16.6032 109.543 16.2519C109.164 15.9005 108.975 15.4659 108.975 14.9388C108.975 14.3563 109.164 13.8893 109.543 13.538C109.922 13.1866 110.417 13.0109 111.032 13.0109H121.143C121.758 13.0109 122.253 13.1866 122.632 13.538C123.011 13.8893 123.2 14.3563 123.2 14.9388C123.2 15.4659 123.011 15.9005 122.632 16.2519C122.253 16.6032 121.758 16.7789 121.143 16.7789H111.032ZM120.75 36.0767C119.289 36.0767 117.976 35.7068 116.811 34.9625C115.646 34.2181 114.726 33.2056 114.056 31.9203C113.385 30.635 113.048 29.1925 113.048 27.5883V6.71392C113.048 6.07128 113.251 5.54884 113.663 5.13736C114.069 4.73051 114.596 4.52246 115.239 4.52246C115.882 4.52246 116.404 4.72589 116.816 5.13736C117.223 5.54422 117.431 6.07128 117.431 6.71392V27.5883C117.431 28.7533 117.75 29.7335 118.392 30.5194C119.035 31.3054 119.821 31.703 120.755 31.703H122.243C122.771 31.703 123.214 31.9064 123.58 32.3179C123.945 32.7248 124.125 33.2518 124.125 33.8945C124.125 34.5371 123.885 35.0596 123.404 35.471C122.923 35.8779 122.304 36.0859 121.545 36.0859H120.75V36.0767Z" fill="white" stroke="white" stroke-width="1.1269" stroke-miterlimit="10"/>
<path d="M128.582 16.7789C127.967 16.7789 127.473 16.6032 127.094 16.2519C126.714 15.9005 126.525 15.4659 126.525 14.9388C126.525 14.3563 126.714 13.8893 127.094 13.538C127.473 13.1866 127.967 13.0109 128.582 13.0109H138.693C139.308 13.0109 139.803 13.1866 140.182 13.538C140.561 13.8893 140.751 14.3563 140.751 14.9388C140.751 15.4659 140.561 15.9005 140.182 16.2519C139.803 16.6032 139.308 16.7789 138.693 16.7789H128.582ZM138.296 36.0767C136.835 36.0767 135.522 35.7068 134.357 34.9625C133.192 34.2181 132.272 33.2056 131.601 31.9203C130.931 30.635 130.593 29.1925 130.593 27.5883V6.71392C130.593 6.07128 130.797 5.54884 131.208 5.13736C131.615 4.73051 132.142 4.52246 132.785 4.52246C133.428 4.52246 133.95 4.72589 134.361 5.13736C134.768 5.54422 134.976 6.07128 134.976 6.71392V27.5883C134.976 28.7533 135.295 29.7335 135.938 30.5194C136.581 31.3054 137.367 31.703 138.301 31.703H139.789C140.316 31.703 140.76 31.9064 141.125 32.3179C141.491 32.7248 141.671 33.2518 141.671 33.8945C141.671 34.5371 141.431 35.0596 140.95 35.471C140.469 35.8779 139.849 36.0859 139.091 36.0859H138.296V36.0767Z" fill="white" stroke="white" stroke-width="1.1269" stroke-miterlimit="10"/>
<path d="M158.384 36.2524C155.961 36.2524 153.812 35.7346 151.93 34.699C150.048 33.6633 148.573 32.2347 147.51 30.4085C146.447 28.5869 145.91 26.4926 145.91 24.13C145.91 21.7398 146.414 19.6315 147.422 17.8053C148.43 15.9837 149.822 14.5505 151.602 13.5149C153.382 12.4792 155.425 11.9614 157.728 11.9614C160.002 11.9614 161.958 12.4654 163.59 13.4733C165.222 14.4811 166.47 15.8681 167.33 17.6296C168.19 19.3957 168.62 21.43 168.62 23.7324C168.62 24.2872 168.431 24.7449 168.051 25.1102C167.672 25.4754 167.192 25.6557 166.609 25.6557H148.971V22.1559H166.475L164.681 23.381C164.653 21.9247 164.357 20.6163 163.807 19.4651C163.252 18.3139 162.467 17.4031 161.445 16.7281C160.423 16.0577 159.184 15.7202 157.723 15.7202C156.059 15.7202 154.639 16.0854 153.456 16.8159C152.272 17.5464 151.375 18.545 150.765 19.8118C150.155 21.0786 149.845 22.5165 149.845 24.1208C149.845 25.7251 150.21 27.1537 150.941 28.4112C151.671 29.6642 152.674 30.6582 153.96 31.3887C155.245 32.1191 156.715 32.4844 158.379 32.4844C159.286 32.4844 160.21 32.3179 161.158 31.9804C162.106 31.6476 162.873 31.2592 163.456 30.82C163.895 30.501 164.367 30.3299 164.88 30.316C165.388 30.3022 165.837 30.4547 166.216 30.7738C166.711 31.213 166.974 31.6938 167.002 32.2162C167.03 32.7433 166.799 33.1964 166.304 33.5709C165.31 34.3568 164.08 34.9995 162.605 35.4988C161.135 36.0074 159.725 36.2524 158.384 36.2524Z" fill="white" stroke="white" stroke-width="1.1269" stroke-miterlimit="10"/>
<path d="M176.503 36.0767C175.805 36.0767 175.264 35.8964 174.885 35.5311C174.506 35.1659 174.316 34.6203 174.316 33.8898V14.3285C174.316 13.6304 174.506 13.0895 174.885 12.7104C175.264 12.3312 175.805 12.1417 176.503 12.1417C177.234 12.1417 177.779 12.322 178.144 12.6872C178.51 13.0525 178.69 13.598 178.69 14.3285V33.8898C178.69 34.588 178.505 35.1289 178.144 35.508C177.779 35.8871 177.234 36.0767 176.503 36.0767ZM176.457 21.111C176.457 19.3587 176.887 17.7914 177.747 16.4044C178.607 15.0174 179.767 13.917 181.228 13.0987C182.684 12.2804 184.293 11.8735 186.041 11.8735C187.789 11.8735 189.097 12.1602 189.957 12.7289C190.817 13.2975 191.145 13.9772 190.942 14.7631C190.854 15.17 190.687 15.4844 190.438 15.7063C190.188 15.9282 189.906 16.0623 189.582 16.1224C189.259 16.1825 188.912 16.164 188.533 16.0808C186.665 15.7017 184.987 15.6739 183.498 15.9929C182.009 16.3166 180.835 16.913 179.975 17.7868C179.115 18.6606 178.685 19.7702 178.685 21.111H176.457Z" fill="white" stroke="white" stroke-width="1.1269" stroke-miterlimit="10"/>
<path d="M3.95567 56.7157C3.37313 56.7157 2.90155 56.5492 2.54093 56.2164C2.18031 55.8835 2 55.4674 2 54.9634C2 54.4086 2.18031 53.9648 2.54093 53.6319C2.90155 53.299 3.37313 53.1326 3.95567 53.1326H13.5814C14.164 53.1326 14.6356 53.299 15.0008 53.6319C15.3614 53.9648 15.5417 54.4086 15.5417 54.9634C15.5417 55.4627 15.3614 55.8788 15.0008 56.2164C14.6402 56.5492 14.1686 56.7157 13.5814 56.7157H3.95567ZM13.207 75.098C11.8153 75.098 10.567 74.742 9.45743 74.0347C8.34783 73.3273 7.4694 72.361 6.83138 71.1358C6.19336 69.9153 5.87435 68.5375 5.87435 67.0118V47.1315C5.87435 46.5212 6.06853 46.0219 6.45689 45.6289C6.84525 45.2406 7.34457 45.0464 7.95947 45.0464C8.56975 45.0464 9.06907 45.2406 9.46205 45.6289C9.85041 46.0173 10.0446 46.5166 10.0446 47.1315V67.0118C10.0446 68.1214 10.3497 69.0553 10.96 69.8043C11.5703 70.5533 12.3193 70.9278 13.2116 70.9278H14.6263C15.1256 70.9278 15.551 71.122 15.8977 71.5103C16.2445 71.8987 16.4202 72.398 16.4202 73.0129C16.4202 73.6232 16.189 74.1225 15.7313 74.5155C15.2736 74.9085 14.6818 75.098 13.9606 75.098H13.207Z" fill="white" stroke="white" stroke-width="2.2538" stroke-miterlimit="10"/>
<path d="M31.9638 75.2643C29.7123 75.2643 27.7242 74.7696 26.0044 73.7848C24.2799 72.8001 22.9252 71.4362 21.9405 69.7024C20.9557 67.9687 20.461 65.9714 20.461 63.7199C20.461 61.4406 20.9557 59.434 21.9405 57.6957C22.9252 55.9573 24.2799 54.598 26.0044 53.6133C27.7289 52.6285 29.7123 52.1338 31.9638 52.1338C34.1877 52.1338 36.1572 52.6285 37.8817 53.6133C39.6062 54.598 40.9608 55.9619 41.9456 57.6957C42.9304 59.434 43.4251 61.4406 43.4251 63.7199C43.4251 65.9714 42.9396 67.9641 41.9641 69.7024C40.9932 71.4408 39.6432 72.8001 37.9233 73.7848C36.1988 74.7696 34.2154 75.2643 31.9638 75.2643ZM31.9638 71.5148C33.4063 71.5148 34.687 71.1819 35.7966 70.5161C36.9062 69.8504 37.7754 68.9303 38.3995 67.7653C39.0237 66.6002 39.3381 65.2502 39.3381 63.7199C39.3381 62.1942 39.0237 60.8395 38.3995 59.6559C37.7754 58.477 36.9062 57.5523 35.7966 56.882C34.687 56.2162 33.4063 55.8833 31.9638 55.8833C30.5167 55.8833 29.2407 56.2162 28.1311 56.882C27.0215 57.5477 26.1431 58.4724 25.505 59.6559C24.867 60.8349 24.548 62.1895 24.548 63.7199C24.548 65.2502 24.867 66.5956 25.505 67.7653C26.1431 68.9303 27.0169 69.8504 28.1311 70.5161C29.2407 71.1773 30.5167 71.5148 31.9638 71.5148Z" fill="white" stroke="white" stroke-width="2.2538" stroke-miterlimit="10"/>
<path d="M59.2646 75.2643C57.1795 75.2643 55.3394 74.7696 53.7443 73.7848C52.1447 72.8001 50.8871 71.4362 49.9717 69.7024C49.0563 67.9687 48.594 65.9714 48.594 63.7199C48.594 61.4406 49.0887 59.434 50.0734 57.6957C51.0582 55.9573 52.4128 54.598 54.1373 53.6133C55.8618 52.6285 57.8452 52.1338 60.0968 52.1338C62.3206 52.1338 64.2902 52.6285 66.0147 53.6133C67.7392 54.598 69.0938 55.9619 70.0786 57.6957C71.0633 59.434 71.558 61.4406 71.558 63.7199H69.0984C69.0984 65.9714 68.6731 67.9641 67.827 69.7024C66.9809 71.4408 65.8205 72.8001 64.3456 73.7848C62.8754 74.7696 61.1787 75.2643 59.2646 75.2643ZM60.0136 84.5572C58.0394 84.5572 56.1947 84.1688 54.4702 83.3921C52.7457 82.6154 51.2894 81.4734 50.0919 79.9755C49.7313 79.5039 49.5972 79.0185 49.6943 78.5145C49.7914 78.0152 50.0642 77.613 50.508 77.3078C51.0073 76.9749 51.5298 76.864 52.0707 76.9749C52.6116 77.0859 53.0508 77.3633 53.3837 77.8071C54.1327 78.7503 55.0805 79.49 56.2178 80.0171C57.3552 80.5442 58.6497 80.8077 60.0922 80.8077C61.4283 80.8077 62.6535 80.4887 63.7816 79.8507C64.9051 79.2126 65.802 78.2648 66.4678 77.0165C67.1335 75.7682 67.4664 74.2379 67.4664 72.4302V66.5123L68.8395 62.846L71.5488 63.7199V72.7215C71.5488 74.9176 71.0633 76.9102 70.0878 78.7041C69.1169 80.4979 67.7623 81.9219 66.0239 82.976C64.2994 84.0301 62.2929 84.5572 60.0136 84.5572ZM60.0968 71.5148C61.5393 71.5148 62.8199 71.1819 63.9295 70.5161C65.0391 69.8504 65.9083 68.9303 66.5325 67.7653C67.1566 66.6002 67.471 65.2502 67.471 63.7199C67.471 62.1942 67.1566 60.8395 66.5325 59.6559C65.9083 58.477 65.0391 57.5523 63.9295 56.882C62.8199 56.2162 61.5393 55.8833 60.0968 55.8833C58.6497 55.8833 57.3737 56.2162 56.2641 56.882C55.1545 57.5477 54.276 58.4724 53.638 59.6559C53 60.8349 52.681 62.1895 52.681 63.7199C52.681 65.2502 53 66.5956 53.638 67.7653C54.276 68.9303 55.1498 69.8504 56.2641 70.5161C57.3737 71.1773 58.6497 71.5148 60.0968 71.5148Z" fill="white" stroke="white" stroke-width="2.2538" stroke-miterlimit="10"/>
<path d="M88.6042 75.2643C86.2972 75.2643 84.2491 74.7696 82.4552 73.7848C80.6614 72.8001 79.2605 71.4362 78.248 69.7024C77.2355 67.9687 76.7269 65.9714 76.7269 63.7199C76.7269 61.4406 77.2077 59.434 78.1648 57.6957C79.1218 55.9573 80.4487 54.598 82.1455 53.6133C83.8422 52.6285 85.784 52.1338 87.9801 52.1338C90.1484 52.1338 92.007 52.6146 93.5651 53.5716C95.1231 54.5287 96.3113 55.8509 97.1297 57.5292C97.948 59.2121 98.3595 61.1493 98.3595 63.3454C98.3595 63.8724 98.1792 64.3116 97.8185 64.6584C97.4579 65.0051 97.0002 65.1808 96.4454 65.1808H79.6489V61.8474H96.3206L94.61 63.0125C94.5822 61.6255 94.3048 60.3818 93.7778 59.2815C93.2507 58.1857 92.5017 57.3165 91.5262 56.6785C90.5553 56.0405 89.3717 55.7215 87.9847 55.7215C86.3989 55.7215 85.0443 56.0682 83.9208 56.7617C82.7973 57.4552 81.942 58.4076 81.3595 59.6143C80.777 60.821 80.4857 62.1942 80.4857 63.7199C80.4857 65.2502 80.8324 66.6094 81.5259 67.8023C82.2194 68.9951 83.1811 69.9429 84.4016 70.6364C85.6222 71.3299 87.0277 71.6766 88.6089 71.6766C89.4688 71.6766 90.3519 71.5194 91.2534 71.1958C92.155 70.8768 92.8855 70.5069 93.4402 70.0908C93.8563 69.7857 94.3094 69.6238 94.7949 69.61C95.2803 69.5961 95.7057 69.7441 96.0663 70.0492C96.5379 70.4653 96.7875 70.923 96.8153 71.4223C96.843 71.9216 96.6211 72.3516 96.1495 72.7122C95.2064 73.4612 94.032 74.0761 92.6265 74.5477C91.2257 75.0285 89.8849 75.2643 88.6042 75.2643Z" fill="white" stroke="white" stroke-width="2.2538" stroke-miterlimit="10"/>
<path d="M102.816 56.7157C102.234 56.7157 101.758 56.5492 101.397 56.2164C101.036 55.8835 100.856 55.4674 100.856 54.9634C100.856 54.4086 101.036 53.9648 101.397 53.6319C101.758 53.299 102.229 53.1326 102.816 53.1326H112.447C113.029 53.1326 113.501 53.299 113.862 53.6319C114.222 53.9648 114.402 54.4086 114.402 54.9634C114.402 55.4627 114.222 55.8788 113.862 56.2164C113.501 56.5492 113.029 56.7157 112.447 56.7157H102.816ZM112.072 75.098C110.681 75.098 109.432 74.742 108.323 74.0347C107.209 73.3273 106.335 72.361 105.697 71.1358C105.059 69.9153 104.74 68.5375 104.74 67.0118V47.1315C104.74 46.5212 104.934 46.0219 105.322 45.6289C105.711 45.2406 106.21 45.0464 106.825 45.0464C107.435 45.0464 107.934 45.2406 108.327 45.6289C108.716 46.0173 108.91 46.5166 108.91 47.1315V67.0118C108.91 68.1214 109.215 69.0553 109.825 69.8043C110.436 70.5533 111.185 70.9278 112.077 70.9278H113.496C113.996 70.9278 114.421 71.122 114.768 71.5103C115.114 71.8987 115.29 72.398 115.29 73.0129C115.29 73.6232 115.059 74.1225 114.601 74.5155C114.144 74.9039 113.552 75.098 112.831 75.098H112.072Z" fill="white" stroke="white" stroke-width="2.2538" stroke-miterlimit="10"/>
<path d="M122.614 66.8035C122.003 66.8035 121.495 66.6047 121.092 66.1979C120.69 65.7957 120.487 65.2871 120.487 64.6768V44.6717C120.487 44.0336 120.69 43.5204 121.092 43.1275C121.495 42.7391 122.003 42.5449 122.614 42.5449C123.252 42.5449 123.765 42.7391 124.158 43.1275C124.546 43.5158 124.74 44.029 124.74 44.6717V64.6768C124.74 65.2871 124.546 65.7957 124.158 66.1979C123.769 66.6001 123.252 66.8035 122.614 66.8035ZM122.614 75.1394C122.003 75.1394 121.495 74.9406 121.092 74.5337C120.69 74.1315 120.487 73.623 120.487 73.0127V54.4223C120.487 53.7842 120.69 53.2711 121.092 52.8781C121.495 52.4897 122.003 52.2955 122.614 52.2955C123.252 52.2955 123.765 52.4897 124.158 52.8781C124.546 53.2664 124.74 53.7796 124.74 54.4223V73.0127C124.74 73.623 124.546 74.1315 124.158 74.5337C123.769 74.936 123.252 75.1394 122.614 75.1394ZM139.743 75.1394C139.133 75.1394 138.624 74.9406 138.222 74.5337C137.82 74.1315 137.616 73.623 137.616 73.0127V62.7581C137.616 61.1723 137.325 59.8824 136.742 58.8838C136.16 57.8851 135.374 57.1408 134.389 56.6553C133.404 56.1699 132.272 55.9248 130.991 55.9248C129.826 55.9248 128.767 56.1606 127.824 56.6322C126.881 57.1038 126.127 57.7372 125.572 58.5278C125.018 59.3184 124.74 60.2292 124.74 61.2602H122.114C122.114 59.5079 122.54 57.9452 123.386 56.5721C124.232 55.199 125.392 54.1079 126.867 53.2988C128.342 52.4897 129.992 52.0921 131.828 52.0921C133.746 52.0921 135.462 52.5036 136.974 53.3219C138.485 54.1402 139.683 55.3423 140.557 56.9281C141.43 58.5139 141.87 60.4557 141.87 62.7628V73.0173C141.87 73.6276 141.666 74.1361 141.264 74.5384C140.862 74.936 140.358 75.1394 139.743 75.1394Z" fill="white" stroke="white" stroke-width="2.2538" stroke-miterlimit="10"/>
<path d="M159.669 75.2643C157.362 75.2643 155.314 74.7696 153.52 73.7848C151.726 72.8001 150.326 71.4362 149.308 69.7024C148.296 67.9687 147.787 65.9714 147.787 63.7199C147.787 61.4406 148.268 59.434 149.225 57.6957C150.182 55.9573 151.509 54.598 153.206 53.6133C154.903 52.6285 156.845 52.1338 159.041 52.1338C161.209 52.1338 163.067 52.6146 164.626 53.5716C166.184 54.5287 167.367 55.8509 168.19 57.5292C169.008 59.2121 169.42 61.1493 169.42 63.3454C169.42 63.8724 169.24 64.3116 168.879 64.6584C168.518 65.0051 168.061 65.1808 167.506 65.1808H150.709V61.8474H167.381L165.67 63.0125C165.643 61.6255 165.365 60.3818 164.838 59.2815C164.311 58.1857 163.562 57.3165 162.587 56.6785C161.616 56.0405 160.432 55.7215 159.045 55.7215C157.459 55.7215 156.105 56.0682 154.981 56.7617C153.858 57.4552 153.003 58.4076 152.42 59.6143C151.837 60.821 151.546 62.1942 151.546 63.7199C151.546 65.2502 151.893 66.6094 152.586 67.8023C153.28 68.9951 154.237 69.9429 155.462 70.6364C156.683 71.3299 158.088 71.6766 159.674 71.6766C160.534 71.6766 161.417 71.5194 162.319 71.1958C163.22 70.8768 163.951 70.5069 164.505 70.0908C164.921 69.7857 165.375 69.6238 165.86 69.61C166.345 69.5961 166.771 69.7441 167.131 70.0492C167.603 70.4653 167.853 70.923 167.88 71.4223C167.908 71.9216 167.686 72.3516 167.215 72.7122C166.271 73.4612 165.097 74.0761 163.692 74.5477C162.286 75.0285 160.945 75.2643 159.669 75.2643Z" fill="white" stroke="white" stroke-width="2.2538" stroke-miterlimit="10"/>
<path d="M176.924 75.0981C176.258 75.0981 175.74 74.9224 175.379 74.5756C175.019 74.2289 174.839 73.7065 174.839 73.013V54.3809C174.839 53.7152 175.019 53.202 175.379 52.8368C175.74 52.4761 176.253 52.2958 176.924 52.2958C177.617 52.2958 178.14 52.4715 178.486 52.8183C178.833 53.165 179.009 53.6874 179.009 54.3809V73.013C179.009 73.6787 178.833 74.1965 178.486 74.5572C178.14 74.9178 177.617 75.0981 176.924 75.0981ZM176.882 60.8444C176.882 59.1753 177.294 57.682 178.112 56.3643C178.93 55.0467 180.035 53.9972 181.427 53.2159C182.814 52.4391 184.344 52.0508 186.013 52.0508C187.682 52.0508 188.921 52.3236 189.744 52.8645C190.563 53.4054 190.877 54.0527 190.683 54.8017C190.6 55.19 190.438 55.4905 190.202 55.6986C189.966 55.9066 189.693 56.0407 189.388 56.0962C189.083 56.1517 188.75 56.1378 188.39 56.0546C186.61 55.694 185.015 55.6662 183.595 55.9714C182.18 56.2765 181.062 56.8452 180.239 57.682C179.42 58.5142 179.009 59.5729 179.009 60.849H176.882V60.8444Z" fill="white" stroke="white" stroke-width="2.2538" stroke-miterlimit="10"/>
</svg>
