<svg width="192" height="86" viewBox="0 0 192 86" fill="none" xmlns="http://www.w3.org/2000/svg">
<path d="M7.84844 7.68943C7.15495 7.77727 6.08696 8.42916 6.47994 9.7653C6.60939 10.2091 6.89142 10.5883 7.23817 10.898C9.92432 13.2929 12.592 15.7155 14.9637 18.4433C15.0655 18.5589 15.1995 18.6421 15.2966 18.7577C17.5251 21.3606 17.2153 22.7615 14.7002 25.0362C12.5781 26.9595 10.174 28.5083 8.10273 30.4778C7.63577 30.9217 7.09947 31.3331 7.29827 32.1191C7.72362 33.7881 11.9077 32.9883 13.905 31.8694C16.3323 30.5102 16.4941 30.39 17.7701 29.5485C19.2357 28.5823 20.4285 27.2923 21.6583 25.9978C24.2844 23.2423 24.6126 21.3652 22.2779 18.5543C20.6921 16.6448 16.6929 12.7289 13.3317 10.371C10.4144 8.32282 7.98714 7.67556 7.84844 7.68943Z" fill="#249451"/>
<path d="M47.5214 20.2186C47.5768 17.856 45.7368 15.9004 43.4066 15.8449C41.2937 15.794 39.0191 17.9346 38.9775 20.0105C38.9358 22.091 41.1181 24.3934 43.1893 24.4628C45.2606 24.5275 47.4705 22.3638 47.5214 20.2186Z" fill="#249451"/>
<path d="M10.0122 25.8036C13.059 25.7481 14.1316 24.0375 14.3166 21.6565C14.4784 19.5575 12.3147 17.403 10.2249 17.329C8.04733 17.2504 5.90673 19.3633 5.90211 21.5917C5.89749 23.9959 7.61274 25.7527 10.0122 25.8036Z" fill="#249451"/>
<path d="M30.1376 4.15718C30.1746 1.80853 28.4917 0.0331755 26.1939 0.000812172C23.4014 -0.0407978 21.885 1.51727 21.8341 4.48544C21.8018 6.36714 23.7806 8.29507 25.8241 8.37366C28.0895 8.45226 30.1006 6.49197 30.1376 4.15718Z" fill="#D4354D"/>
<path d="M27.4608 41.7864C29.851 41.828 31.4692 40.1544 31.4969 37.6069C31.5247 35.286 29.814 33.5107 27.5116 33.4691C25.1861 33.4275 23.309 35.2907 23.3044 37.6393C23.2998 40.0249 25.0243 41.7448 27.4608 41.7864Z" fill="#D4354D"/>
<path d="M39.8095 1.75776C39.717 1.06426 39.0605 0.000891778 37.7244 0.398498C37.2806 0.532575 36.9014 0.814599 36.5963 1.16135C34.2153 3.86137 31.8112 6.54291 29.0973 8.92854C28.9817 9.03026 28.8985 9.16433 28.7829 9.26604C26.1938 11.5084 24.7929 11.2078 22.4998 8.70662C20.5626 6.59376 18.9999 4.19888 17.0211 2.1415C16.5727 1.67454 16.1566 1.14285 15.3752 1.3509C13.7108 1.79012 14.5338 5.96499 15.6619 7.95764C17.035 10.3803 17.1552 10.5375 18.0059 11.8089C18.9814 13.2652 20.2806 14.4534 21.5797 15.6786C24.3537 18.2908 26.2308 18.6052 29.0279 16.2519C30.9281 14.6568 34.8209 10.6346 37.1604 7.25952C39.1946 4.32833 39.828 1.89646 39.8095 1.75776Z" fill="#D4354D"/>
<path d="M45.7135 33.8388C46.407 33.751 47.475 33.0991 47.082 31.763C46.9526 31.3191 46.6705 30.94 46.3238 30.6303C43.6376 28.2354 40.97 25.8127 38.5982 23.085C38.4965 22.9694 38.3624 22.8862 38.2653 22.7706C36.0369 20.1677 36.3466 18.7668 38.8617 16.4921C40.9838 14.5688 43.388 13.02 45.4592 11.0504C45.9262 10.6066 46.4625 10.1951 46.2637 9.40916C45.8383 7.74014 41.6542 8.53998 39.657 9.65882C37.2297 11.0181 37.0679 11.1383 35.7918 11.9797C34.3263 12.946 33.1334 14.2359 31.9036 15.5305C29.2776 18.286 28.9493 20.163 31.2841 22.974C32.8699 24.8835 36.8691 28.7994 40.2302 31.1573C43.1429 33.2054 45.5702 33.8573 45.7135 33.8388Z" fill="#249451"/>
<path d="M13.8311 39.9186C13.9282 40.6121 14.5986 41.6708 15.9301 41.2501C16.3693 41.1114 16.7484 40.8248 17.0489 40.4734C19.3976 37.7456 21.774 35.0364 24.4601 32.6184C24.5757 32.5166 24.6543 32.3826 24.7699 32.2809C27.3312 30.0062 28.7367 30.2928 31.0576 32.7663C33.0179 34.856 34.6083 37.2324 36.6102 39.2667C37.0633 39.729 37.4841 40.2561 38.2654 40.0388C39.9252 39.5811 39.0514 35.4155 37.9002 33.4367C36.4993 31.0326 36.3745 30.8754 35.5099 29.6132C34.5205 28.1661 33.2075 26.9964 31.8944 25.7851C29.0927 23.2053 27.211 22.914 24.4416 25.295C22.5599 26.9132 18.7133 30.9771 16.4155 34.3845C14.4183 37.3388 13.8126 39.7799 13.8311 39.9186Z" fill="#D4354D"/>
<path d="M66.1349 36.2525C63.8602 36.2525 61.8167 35.7208 60.009 34.6574C58.2012 33.594 56.7726 32.1423 55.7185 30.3022C54.669 28.4621 54.1281 26.3909 54.1003 24.0885V4.12955C54.1003 3.45917 54.313 2.91824 54.7337 2.51139C55.1545 2.10454 55.6908 1.89648 56.3334 1.89648C57.0038 1.89648 57.5447 2.09991 57.9516 2.51139C58.3584 2.91824 58.5665 3.45917 58.5665 4.12955V15.9468C59.5882 14.7216 60.8227 13.7507 62.2651 13.0387C63.7076 12.3221 65.2934 11.9661 67.0133 11.9661C69.1447 11.9661 71.0541 12.4978 72.7462 13.5658C74.4384 14.6291 75.7745 16.0762 76.75 17.8978C77.7256 19.7194 78.2156 21.7861 78.2156 24.0885C78.2156 26.3955 77.6839 28.4668 76.616 30.3022C75.5526 32.1423 74.1147 33.594 72.307 34.6574C70.4947 35.7208 68.4373 36.2525 66.1349 36.2525ZM66.1349 32.3134C67.6236 32.3134 68.9505 31.9574 70.1156 31.2408C71.2806 30.5241 72.2099 29.5394 72.8942 28.2865C73.5784 27.0335 73.9206 25.6327 73.9206 24.0839C73.9206 22.5073 73.5784 21.1064 72.8942 19.8812C72.2099 18.6561 71.2806 17.6852 70.1156 16.9732C68.9505 16.2565 67.619 15.9006 66.1349 15.9006C64.6739 15.9006 63.3563 16.2565 62.1727 16.9732C60.9891 17.6898 60.0644 18.6561 59.3941 19.8812C58.7237 21.1064 58.3862 22.5073 58.3862 24.0839C58.3862 25.6327 58.719 27.0335 59.3941 28.2865C60.0644 29.5394 60.9937 30.5241 62.1727 31.2408C63.3563 31.9574 64.6739 32.3134 66.1349 32.3134Z" fill="#D4354D" stroke="#D4354D" stroke-width="1.1269" stroke-miterlimit="10"/>
<path d="M96.1125 36.2524C93.6899 36.2524 91.5401 35.7346 89.6584 34.699C87.7767 33.6633 86.3018 32.2347 85.2385 30.4085C84.1751 28.5869 83.6388 26.4926 83.6388 24.13C83.6388 21.7398 84.1427 19.6315 85.1506 17.8053C86.1585 15.9837 87.5501 14.5505 89.3301 13.5149C91.1101 12.4792 93.1536 11.9614 95.456 11.9614C97.7307 11.9614 99.6864 12.4654 101.318 13.4733C102.95 14.4811 104.199 15.8681 105.059 17.6296C105.919 19.3957 106.349 21.43 106.349 23.7324C106.349 24.2872 106.159 24.7449 105.78 25.1102C105.401 25.4754 104.92 25.6557 104.337 25.6557H86.6994V22.1559H104.203L102.41 23.381C102.382 21.9247 102.086 20.6163 101.536 19.4651C100.981 18.3139 100.195 17.4031 99.1732 16.7281C98.1514 16.0577 96.9124 15.7202 95.456 15.7202C93.7916 15.7202 92.3723 16.0854 91.1887 16.8159C90.0051 17.5464 89.1082 18.545 88.4979 19.8118C87.8876 21.0786 87.5779 22.5165 87.5779 24.1208C87.5779 25.7251 87.9431 27.1537 88.6736 28.4112C89.4041 29.6642 90.4073 30.6582 91.6926 31.3887C92.9779 32.1191 94.4481 32.4844 96.1125 32.4844C97.0187 32.4844 97.9434 32.3179 98.8912 31.9804C99.8389 31.6476 100.606 31.2592 101.189 30.82C101.628 30.501 102.1 30.3299 102.613 30.316C103.122 30.3022 103.57 30.4547 103.949 30.7738C104.444 31.213 104.707 31.6938 104.735 32.2162C104.763 32.7433 104.532 33.1964 104.037 33.5709C103.043 34.3568 101.813 34.9995 100.338 35.4988C98.8588 36.0074 97.4533 36.2524 96.1125 36.2524Z" fill="#D4354D" stroke="#D4354D" stroke-width="1.1269" stroke-miterlimit="10"/>
<path d="M111.032 16.7788C110.417 16.7788 109.922 16.6031 109.543 16.2517C109.164 15.9004 108.974 15.4658 108.974 14.9387C108.974 14.3562 109.164 13.8892 109.543 13.5378C109.922 13.1865 110.417 13.0108 111.032 13.0108H121.143C121.758 13.0108 122.253 13.1865 122.632 13.5378C123.011 13.8892 123.2 14.3562 123.2 14.9387C123.2 15.4658 123.011 15.9004 122.632 16.2517C122.253 16.6031 121.758 16.7788 121.143 16.7788H111.032ZM120.75 36.0766C119.289 36.0766 117.976 35.7067 116.811 34.9623C115.646 34.218 114.726 33.2055 114.056 31.9202C113.385 30.6349 113.048 29.1924 113.048 27.5881V6.7138C113.048 6.07116 113.251 5.54872 113.663 5.13724C114.069 4.73039 114.596 4.52234 115.239 4.52234C115.882 4.52234 116.404 4.72577 116.816 5.13724C117.223 5.5441 117.431 6.07116 117.431 6.7138V27.5881C117.431 28.7532 117.75 29.7334 118.392 30.5193C119.035 31.3053 119.821 31.7029 120.755 31.7029H122.243C122.771 31.7029 123.214 31.9063 123.58 32.3178C123.945 32.7247 124.125 33.2517 124.125 33.8944C124.125 34.537 123.885 35.0594 123.404 35.4709C122.923 35.8778 122.304 36.0858 121.545 36.0858H120.75V36.0766Z" fill="#D4354D" stroke="#D4354D" stroke-width="1.1269" stroke-miterlimit="10"/>
<path d="M128.582 16.7788C127.967 16.7788 127.473 16.6031 127.094 16.2517C126.714 15.9004 126.525 15.4658 126.525 14.9387C126.525 14.3562 126.714 13.8892 127.094 13.5378C127.473 13.1865 127.967 13.0108 128.582 13.0108H138.694C139.308 13.0108 139.803 13.1865 140.182 13.5378C140.561 13.8892 140.751 14.3562 140.751 14.9387C140.751 15.4658 140.561 15.9004 140.182 16.2517C139.803 16.6031 139.308 16.7788 138.694 16.7788H128.582ZM138.296 36.0766C136.835 36.0766 135.522 35.7067 134.357 34.9623C133.192 34.218 132.272 33.2055 131.601 31.9202C130.931 30.6349 130.593 29.1924 130.593 27.5881V6.7138C130.593 6.07116 130.797 5.54872 131.208 5.13724C131.615 4.73039 132.142 4.52234 132.785 4.52234C133.428 4.52234 133.95 4.72577 134.361 5.13724C134.768 5.5441 134.976 6.07116 134.976 6.7138V27.5881C134.976 28.7532 135.295 29.7334 135.938 30.5193C136.581 31.3053 137.367 31.7029 138.301 31.7029H139.789C140.316 31.7029 140.76 31.9063 141.125 32.3178C141.491 32.7247 141.671 33.2517 141.671 33.8944C141.671 34.537 141.431 35.0594 140.95 35.4709C140.469 35.8778 139.849 36.0858 139.091 36.0858H138.296V36.0766Z" fill="#D4354D" stroke="#D4354D" stroke-width="1.1269" stroke-miterlimit="10"/>
<path d="M158.384 36.2524C155.961 36.2524 153.812 35.7346 151.93 34.699C150.048 33.6633 148.573 32.2347 147.51 30.4085C146.447 28.5869 145.91 26.4926 145.91 24.13C145.91 21.7398 146.414 19.6315 147.422 17.8053C148.43 15.9837 149.822 14.5505 151.602 13.5149C153.382 12.4792 155.425 11.9614 157.728 11.9614C160.002 11.9614 161.958 12.4654 163.59 13.4733C165.222 14.4811 166.47 15.8681 167.33 17.6296C168.19 19.3957 168.62 21.43 168.62 23.7324C168.62 24.2872 168.431 24.7449 168.051 25.1102C167.672 25.4754 167.192 25.6557 166.609 25.6557H148.971V22.1559H166.475L164.681 23.381C164.653 21.9247 164.357 20.6163 163.807 19.4651C163.252 18.3139 162.466 17.4031 161.445 16.7281C160.423 16.0577 159.184 15.7202 157.723 15.7202C156.059 15.7202 154.639 16.0854 153.456 16.8159C152.272 17.5464 151.375 18.545 150.765 19.8118C150.155 21.0786 149.845 22.5165 149.845 24.1208C149.845 25.7251 150.21 27.1537 150.941 28.4112C151.671 29.6642 152.674 30.6582 153.96 31.3887C155.245 32.1191 156.715 32.4844 158.379 32.4844C159.286 32.4844 160.21 32.3179 161.158 31.9804C162.106 31.6476 162.873 31.2592 163.456 30.82C163.895 30.501 164.367 30.3299 164.88 30.316C165.388 30.3022 165.837 30.4547 166.216 30.7738C166.711 31.213 166.974 31.6938 167.002 32.2162C167.03 32.7433 166.799 33.1964 166.304 33.5709C165.31 34.3568 164.08 34.9995 162.605 35.4988C161.135 36.0074 159.725 36.2524 158.384 36.2524Z" fill="#D4354D" stroke="#D4354D" stroke-width="1.1269" stroke-miterlimit="10"/>
<path d="M176.503 36.0768C175.805 36.0768 175.264 35.8965 174.885 35.5312C174.506 35.166 174.316 34.6204 174.316 33.89V14.3286C174.316 13.6305 174.506 13.0896 174.885 12.7105C175.264 12.3314 175.805 12.1418 176.503 12.1418C177.234 12.1418 177.779 12.3221 178.144 12.6874C178.51 13.0526 178.69 13.5982 178.69 14.3286V33.89C178.69 34.5881 178.505 35.129 178.144 35.5081C177.779 35.8872 177.234 36.0768 176.503 36.0768ZM176.457 21.1111C176.457 19.3588 176.887 17.7915 177.747 16.4045C178.607 15.0175 179.767 13.9172 181.228 13.0988C182.684 12.2805 184.293 11.8737 186.041 11.8737C187.789 11.8737 189.097 12.1603 189.957 12.729C190.817 13.2976 191.145 13.9773 190.942 14.7632C190.854 15.1701 190.687 15.4845 190.438 15.7064C190.188 15.9283 189.906 16.0624 189.582 16.1225C189.259 16.1826 188.912 16.1641 188.533 16.0809C186.665 15.7018 184.987 15.674 183.498 15.993C182.009 16.3167 180.835 16.9131 179.975 17.7869C179.115 18.6607 178.685 19.7703 178.685 21.1111H176.457Z" fill="#D4354D" stroke="#D4354D" stroke-width="1.1269" stroke-miterlimit="10"/>
<path d="M3.95567 56.7152C3.37313 56.7152 2.90155 56.5487 2.54093 56.2159C2.18031 55.883 2 55.4669 2 54.9629C2 54.4081 2.18031 53.9643 2.54093 53.6314C2.90155 53.2985 3.37313 53.1321 3.95567 53.1321H13.5814C14.164 53.1321 14.6356 53.2985 15.0008 53.6314C15.3614 53.9643 15.5417 54.4081 15.5417 54.9629C15.5417 55.4623 15.3614 55.8784 15.0008 56.2159C14.6402 56.5487 14.1686 56.7152 13.5814 56.7152H3.95567ZM13.207 75.0975C11.8153 75.0975 10.567 74.7415 9.45743 74.0342C8.34783 73.3268 7.4694 72.3605 6.83138 71.1354C6.19336 69.9148 5.87435 68.537 5.87435 67.0113V47.131C5.87435 46.5207 6.06853 46.0214 6.45689 45.6284C6.84525 45.2401 7.34457 45.0459 7.95947 45.0459C8.56975 45.0459 9.06907 45.2401 9.46205 45.6284C9.85041 46.0168 10.0446 46.5161 10.0446 47.131V67.0113C10.0446 68.1209 10.3497 69.0549 10.96 69.8038C11.5703 70.5528 12.3193 70.9273 13.2116 70.9273H14.6263C15.1256 70.9273 15.551 71.1215 15.8977 71.5098C16.2445 71.8982 16.4202 72.3975 16.4202 73.0124C16.4202 73.6227 16.189 74.122 15.7313 74.515C15.2736 74.908 14.6818 75.0975 13.9606 75.0975H13.207Z" fill="#249451" stroke="#249451" stroke-width="2.2538" stroke-miterlimit="10"/>
<path d="M31.9638 75.2639C29.7123 75.2639 27.7243 74.7692 26.0044 73.7845C24.2799 72.7997 22.9252 71.4358 21.9405 69.7021C20.9557 67.9683 20.461 65.971 20.461 63.7195C20.461 61.4402 20.9557 59.4337 21.9405 57.6953C22.9252 55.9569 24.2799 54.5977 26.0044 53.6129C27.7289 52.6281 29.7123 52.1334 31.9638 52.1334C34.1877 52.1334 36.1572 52.6281 37.8817 53.6129C39.6062 54.5977 40.9608 55.9615 41.9456 57.6953C42.9304 59.4337 43.4251 61.4402 43.4251 63.7195C43.4251 65.971 42.9396 67.9637 41.9641 69.7021C40.9932 71.4405 39.6432 72.7997 37.9233 73.7845C36.1988 74.7692 34.2154 75.2639 31.9638 75.2639ZM31.9638 71.5144C33.4063 71.5144 34.687 71.1815 35.7966 70.5158C36.9062 69.85 37.7754 68.93 38.3995 67.7649C39.0237 66.5998 39.3381 65.2498 39.3381 63.7195C39.3381 62.1938 39.0237 60.8392 38.3995 59.6556C37.7754 58.4766 36.9062 57.552 35.7966 56.8816C34.687 56.2158 33.4063 55.8829 31.9638 55.8829C30.5167 55.8829 29.2407 56.2158 28.1311 56.8816C27.0215 57.5473 26.1431 58.472 25.5051 59.6556C24.867 60.8345 24.548 62.1892 24.548 63.7195C24.548 65.2498 24.867 66.5952 25.5051 67.7649C26.1431 68.93 27.0169 69.85 28.1311 70.5158C29.2407 71.1769 30.5167 71.5144 31.9638 71.5144Z" fill="#249451" stroke="#249451" stroke-width="2.2538" stroke-miterlimit="10"/>
<path d="M59.2646 75.2639C57.1795 75.2639 55.3394 74.7692 53.7443 73.7845C52.1447 72.7997 50.8871 71.4358 49.9717 69.7021C49.0563 67.9683 48.5939 65.971 48.5939 63.7195C48.5939 61.4402 49.0886 59.4337 50.0734 57.6953C51.0582 55.9569 52.4128 54.5977 54.1373 53.6129C55.8618 52.6281 57.8452 52.1334 60.0968 52.1334C62.3206 52.1334 64.2901 52.6281 66.0146 53.6129C67.7391 54.5977 69.0938 55.9615 70.0785 57.6953C71.0633 59.4337 71.558 61.4402 71.558 63.7195H69.0984C69.0984 65.971 68.6731 67.9637 67.827 69.7021C66.9809 71.4404 65.8205 72.7997 64.3456 73.7845C62.8754 74.7692 61.1786 75.2639 59.2646 75.2639ZM60.0136 84.5568C58.0394 84.5568 56.1947 84.1685 54.4702 83.3918C52.7457 82.615 51.2893 81.4731 50.0919 79.9751C49.7313 79.5035 49.5972 79.0181 49.6943 78.5141C49.7914 78.0148 50.0642 77.6126 50.508 77.3075C51.0073 76.9746 51.5297 76.8636 52.0707 76.9746C52.6116 77.0855 53.0508 77.3629 53.3837 77.8068C54.1327 78.7499 55.0805 79.4897 56.2178 80.0167C57.3551 80.5438 58.6497 80.8073 60.0922 80.8073C61.4283 80.8073 62.6535 80.4883 63.7816 79.8503C64.905 79.2123 65.802 78.2645 66.4677 77.0162C67.1335 75.7679 67.4664 74.2376 67.4664 72.4298V66.512L68.8395 62.8457L71.5488 63.7195V72.7211C71.5488 74.9172 71.0633 76.9098 70.0878 78.7037C69.1169 80.4976 67.7623 81.9215 66.0239 82.9757C64.2994 84.0298 62.2929 84.5568 60.0136 84.5568ZM60.0968 71.5144C61.5393 71.5144 62.8199 71.1815 63.9295 70.5158C65.0391 69.85 65.9083 68.93 66.5325 67.7649C67.1566 66.5998 67.471 65.2498 67.471 63.7195C67.471 62.1938 67.1566 60.8392 66.5325 59.6556C65.9083 58.4766 65.0391 57.552 63.9295 56.8816C62.8199 56.2158 61.5393 55.8829 60.0968 55.8829C58.6497 55.8829 57.3736 56.2158 56.264 56.8816C55.1544 57.5473 54.276 58.472 53.638 59.6556C53 60.8345 52.681 62.1892 52.681 63.7195C52.681 65.2498 53 66.5952 53.638 67.7649C54.276 68.93 55.1498 69.85 56.264 70.5158C57.3736 71.1769 58.6497 71.5144 60.0968 71.5144Z" fill="#249451" stroke="#249451" stroke-width="2.2538" stroke-miterlimit="10"/>
<path d="M88.6043 75.2639C86.2972 75.2639 84.2491 74.7692 82.4552 73.7845C80.6614 72.7997 79.2605 71.4358 78.248 69.7021C77.2355 67.9683 76.7269 65.971 76.7269 63.7195C76.7269 61.4402 77.2078 59.4337 78.1648 57.6953C79.1218 55.9569 80.4487 54.5977 82.1455 53.6129C83.8422 52.6281 85.784 52.1334 87.9801 52.1334C90.1485 52.1334 92.007 52.6142 93.5651 53.5713C95.1232 54.5283 96.3114 55.8506 97.1297 57.5288C97.948 59.2117 98.3595 61.1489 98.3595 63.345C98.3595 63.8721 98.1792 64.3113 97.8186 64.658C97.4579 65.0048 97.0002 65.1805 96.4454 65.1805H79.6489V61.847H96.3206L94.61 63.0121C94.5822 61.6251 94.3048 60.3814 93.7778 59.2811C93.2507 58.1854 92.5017 57.3162 91.5262 56.6782C90.5553 56.0401 89.3717 55.7211 87.9847 55.7211C86.3989 55.7211 85.0443 56.0679 83.9208 56.7614C82.7974 57.4549 81.942 58.4073 81.3595 59.614C80.777 60.8207 80.4857 62.1938 80.4857 63.7195C80.4857 65.2498 80.8324 66.6091 81.5259 67.8019C82.2194 68.9947 83.1811 69.9425 84.4017 70.636C85.6222 71.3295 87.0277 71.6762 88.6089 71.6762C89.4688 71.6762 90.3519 71.519 91.2534 71.1954C92.155 70.8764 92.8855 70.5065 93.4403 70.0904C93.8564 69.7853 94.3095 69.6235 94.7949 69.6096C95.2804 69.5957 95.7057 69.7437 96.0663 70.0488C96.5379 70.4649 96.7876 70.9226 96.8153 71.422C96.843 71.9213 96.6211 72.3512 96.1495 72.7119C95.2064 73.4608 94.0321 74.0757 92.6266 74.5473C91.2257 75.0282 89.8849 75.2639 88.6043 75.2639Z" fill="#249451" stroke="#249451" stroke-width="2.2538" stroke-miterlimit="10"/>
<path d="M102.816 56.7152C102.234 56.7152 101.758 56.5487 101.397 56.2159C101.036 55.883 100.856 55.4669 100.856 54.9629C100.856 54.4081 101.036 53.9643 101.397 53.6314C101.758 53.2985 102.229 53.1321 102.816 53.1321H112.447C113.029 53.1321 113.501 53.2985 113.862 53.6314C114.222 53.9643 114.402 54.4081 114.402 54.9629C114.402 55.4623 114.222 55.8784 113.862 56.2159C113.501 56.5487 113.029 56.7152 112.447 56.7152H102.816ZM112.072 75.0975C110.681 75.0975 109.432 74.7415 108.323 74.0342C107.209 73.3268 106.335 72.3605 105.697 71.1354C105.059 69.9148 104.74 68.537 104.74 67.0113V47.131C104.74 46.5207 104.934 46.0214 105.322 45.6284C105.711 45.2401 106.21 45.0459 106.825 45.0459C107.435 45.0459 107.934 45.2401 108.327 45.6284C108.716 46.0168 108.91 46.5161 108.91 47.131V67.0113C108.91 68.1209 109.215 69.0549 109.825 69.8038C110.436 70.5528 111.185 70.9273 112.077 70.9273H113.496C113.996 70.9273 114.421 71.1215 114.768 71.5098C115.114 71.8982 115.29 72.3975 115.29 73.0124C115.29 73.6227 115.059 74.122 114.601 74.515C114.144 74.9034 113.552 75.0975 112.831 75.0975H112.072Z" fill="#249451" stroke="#249451" stroke-width="2.2538" stroke-miterlimit="10"/>
<path d="M122.613 66.8033C122.003 66.8033 121.495 66.6045 121.092 66.1976C120.69 65.7954 120.487 65.2868 120.487 64.6766V44.6714C120.487 44.0334 120.69 43.5202 121.092 43.1272C121.495 42.7389 122.003 42.5447 122.613 42.5447C123.252 42.5447 123.765 42.7389 124.158 43.1272C124.546 43.5156 124.74 44.0288 124.74 44.6714V64.6766C124.74 65.2868 124.546 65.7954 124.158 66.1976C123.769 66.5999 123.252 66.8033 122.613 66.8033ZM122.613 75.1392C122.003 75.1392 121.495 74.9404 121.092 74.5335C120.69 74.1313 120.487 73.6227 120.487 73.0124V54.422C120.487 53.784 120.69 53.2708 121.092 52.8778C121.495 52.4895 122.003 52.2953 122.613 52.2953C123.252 52.2953 123.765 52.4895 124.158 52.8778C124.546 53.2662 124.74 53.7794 124.74 54.422V73.0124C124.74 73.6227 124.546 74.1313 124.158 74.5335C123.769 74.9357 123.252 75.1392 122.613 75.1392ZM139.743 75.1392C139.133 75.1392 138.624 74.9404 138.222 74.5335C137.82 74.1313 137.616 73.6227 137.616 73.0124V62.7579C137.616 61.1721 137.325 59.8822 136.742 58.8835C136.16 57.8849 135.374 57.1405 134.389 56.6551C133.404 56.1696 132.272 55.9246 130.991 55.9246C129.826 55.9246 128.767 56.1604 127.824 56.632C126.881 57.1035 126.127 57.7369 125.572 58.5275C125.018 59.3181 124.74 60.2289 124.74 61.2599H122.114C122.114 59.5077 122.54 57.945 123.386 56.5719C124.232 55.1987 125.392 54.1076 126.867 53.2985C128.342 52.4895 129.992 52.0919 131.828 52.0919C133.746 52.0919 135.462 52.5033 136.974 53.3217C138.485 54.14 139.683 55.3421 140.557 56.9279C141.43 58.5137 141.87 60.4555 141.87 62.7625V73.017C141.87 73.6273 141.666 74.1359 141.264 74.5381C140.862 74.9357 140.358 75.1392 139.743 75.1392Z" fill="#249451" stroke="#249451" stroke-width="2.2538" stroke-miterlimit="10"/>
<path d="M159.669 75.2639C157.362 75.2639 155.314 74.7692 153.52 73.7845C151.726 72.7997 150.326 71.4358 149.308 69.7021C148.296 67.9683 147.787 65.971 147.787 63.7195C147.787 61.4402 148.268 59.4337 149.225 57.6953C150.182 55.9569 151.509 54.5977 153.206 53.6129C154.903 52.6281 156.845 52.1334 159.041 52.1334C161.209 52.1334 163.068 52.6142 164.626 53.5713C166.184 54.5283 167.367 55.8506 168.19 57.5288C169.008 59.2117 169.42 61.1489 169.42 63.345C169.42 63.8721 169.24 64.3113 168.879 64.658C168.518 65.0048 168.061 65.1805 167.506 65.1805H150.709V61.847H167.381L165.67 63.0121C165.643 61.6251 165.365 60.3814 164.838 59.2811C164.311 58.1854 163.562 57.3162 162.587 56.6782C161.616 56.0401 160.432 55.7211 159.045 55.7211C157.459 55.7211 156.105 56.0679 154.981 56.7614C153.858 57.4549 153.003 58.4073 152.42 59.614C151.837 60.8207 151.546 62.1938 151.546 63.7195C151.546 65.2498 151.893 66.6091 152.586 67.8019C153.28 68.9947 154.237 69.9425 155.462 70.636C156.683 71.3295 158.088 71.6762 159.674 71.6762C160.534 71.6762 161.417 71.519 162.319 71.1954C163.22 70.8764 163.951 70.5065 164.505 70.0904C164.921 69.7853 165.375 69.6235 165.86 69.6096C166.345 69.5957 166.771 69.7437 167.131 70.0488C167.603 70.4649 167.853 70.9226 167.88 71.422C167.908 71.9213 167.686 72.3512 167.215 72.7119C166.271 73.4608 165.097 74.0757 163.692 74.5473C162.286 75.0282 160.945 75.2639 159.669 75.2639Z" fill="#249451" stroke="#249451" stroke-width="2.2538" stroke-miterlimit="10"/>
<path d="M176.924 75.0977C176.258 75.0977 175.74 74.922 175.379 74.5753C175.019 74.2285 174.839 73.7061 174.839 73.0126V54.3806C174.839 53.7148 175.019 53.2016 175.379 52.8364C175.74 52.4758 176.253 52.2955 176.924 52.2955C177.617 52.2955 178.14 52.4711 178.486 52.8179C178.833 53.1646 179.009 53.6871 179.009 54.3806V73.0126C179.009 73.6784 178.833 74.1962 178.486 74.5568C178.14 74.9174 177.617 75.0977 176.924 75.0977ZM176.882 60.844C176.882 59.175 177.294 57.6816 178.112 56.364C178.93 55.0463 180.035 53.9968 181.427 53.2155C182.814 52.4388 184.344 52.0504 186.013 52.0504C187.682 52.0504 188.921 52.3232 189.744 52.8641C190.563 53.4051 190.877 54.0523 190.683 54.8013C190.6 55.1897 190.438 55.4902 190.202 55.6982C189.966 55.9063 189.693 56.0403 189.388 56.0958C189.083 56.1513 188.75 56.1374 188.39 56.0542C186.61 55.6936 185.015 55.6659 183.595 55.971C182.18 56.2761 181.062 56.8448 180.239 57.6816C179.42 58.5138 179.009 59.5726 179.009 60.8486H176.882V60.844Z" fill="#249451" stroke="#249451" stroke-width="2.2538" stroke-miterlimit="10"/>
</svg>
