<svg width="43" height="42" viewBox="0 0 43 42" fill="none" xmlns="http://www.w3.org/2000/svg">
<path d="M2.84844 7.68943C2.15495 7.77727 1.08696 8.42916 1.47994 9.7653C1.60939 10.2091 1.89142 10.5883 2.23817 10.898C4.92432 13.2929 7.59198 15.7155 9.96375 18.4433C10.0655 18.5589 10.1995 18.6421 10.2966 18.7577C12.5251 21.3606 12.2153 22.7615 9.70022 25.0362C7.57811 26.9595 5.17398 28.5083 3.10273 30.4778C2.63577 30.9217 2.09947 31.3331 2.29827 32.1191C2.72362 33.7881 6.90773 32.9883 8.90501 31.8694C11.3323 30.5102 11.4941 30.39 12.7701 29.5485C14.2357 28.5823 15.4285 27.2923 16.6583 25.9978C19.2844 23.2423 19.6126 21.3652 17.2779 18.5543C15.6921 16.6448 11.6929 12.7289 8.33171 10.371C5.41439 8.32282 2.98714 7.67556 2.84844 7.68943Z" fill="#249451"/>
<path d="M42.5214 20.2186C42.5768 17.856 40.7368 15.9004 38.4066 15.8449C36.2937 15.794 34.0191 17.9346 33.9775 20.0105C33.9358 22.091 36.1181 24.3934 38.1893 24.4628C40.2606 24.5275 42.4705 22.3638 42.5214 20.2186Z" fill="#249451"/>
<path d="M5.01225 25.8036C8.05902 25.7481 9.13163 24.0375 9.31657 21.6565C9.47838 19.5575 7.31467 17.403 5.22492 17.329C3.04733 17.2504 0.906732 19.3633 0.902109 21.5917C0.897486 23.9959 2.61274 25.7527 5.01225 25.8036Z" fill="#249451"/>
<path d="M25.1376 4.15718C25.1746 1.80853 23.4917 0.0331755 21.1939 0.000812172C18.4014 -0.0407978 16.885 1.51727 16.8341 4.48544C16.8018 6.36714 18.7806 8.29507 20.8241 8.37366C23.0895 8.45226 25.1006 6.49197 25.1376 4.15718Z" fill="#D4354D"/>
<path d="M22.4608 41.7864C24.851 41.828 26.4692 40.1544 26.4969 37.6069C26.5247 35.286 24.814 33.5107 22.5116 33.4691C20.1861 33.4275 18.309 35.2907 18.3044 37.6393C18.2998 40.0249 20.0243 41.7448 22.4608 41.7864Z" fill="#D4354D"/>
<path d="M34.8095 1.75776C34.7171 1.06426 34.0605 0.000891775 32.7244 0.398498C32.2806 0.532575 31.9014 0.814599 31.5963 1.16135C29.2153 3.86137 26.8112 6.54291 24.0973 8.92854C23.9817 9.03026 23.8985 9.16433 23.7829 9.26604C21.1938 11.5084 19.7929 11.2078 17.4998 8.70662C15.5626 6.59376 13.9999 4.19888 12.0211 2.1415C11.5727 1.67454 11.1566 1.14285 10.3752 1.3509C8.71082 1.79012 9.53377 5.96499 10.6619 7.95764C12.035 10.3803 12.1552 10.5375 13.0059 11.8089C13.9814 13.2652 15.2806 14.4534 16.5797 15.6786C19.3537 18.2908 21.2308 18.6052 24.0279 16.2519C25.9281 14.6568 29.8209 10.6346 32.1604 7.25952C34.1946 4.32833 34.828 1.89646 34.8095 1.75776Z" fill="#D4354D"/>
<path d="M40.7135 33.8388C41.407 33.751 42.475 33.0991 42.082 31.763C41.9526 31.3191 41.6705 30.94 41.3238 30.6303C38.6376 28.2354 35.97 25.8127 33.5982 23.085C33.4965 22.9694 33.3624 22.8862 33.2653 22.7706C31.0369 20.1677 31.3466 18.7668 33.8617 16.4921C35.9838 14.5688 38.388 13.02 40.4592 11.0504C40.9262 10.6066 41.4625 10.1951 41.2637 9.40916C40.8383 7.74014 36.6542 8.53998 34.657 9.65882C32.2297 11.0181 32.0679 11.1383 30.7918 11.9797C29.3263 12.946 28.1334 14.2359 26.9036 15.5305C24.2776 18.286 23.9493 20.163 26.2841 22.974C27.8699 24.8835 31.8691 28.7994 35.2302 31.1573C38.1429 33.2054 40.5702 33.8573 40.7135 33.8388Z" fill="#249451"/>
<path d="M8.8311 39.9186C8.92819 40.6121 9.59857 41.6708 10.9301 41.2501C11.3693 41.1114 11.7484 40.8248 12.0489 40.4734C14.3976 37.7456 16.774 35.0364 19.4601 32.6184C19.5757 32.5166 19.6543 32.3826 19.7699 32.2809C22.3312 30.0062 23.7367 30.2928 26.0576 32.7663C28.0179 34.856 29.6083 37.2324 31.6102 39.2667C32.0633 39.729 32.4841 40.2561 33.2654 40.0388C34.9252 39.5811 34.0514 35.4155 32.9002 33.4367C31.4993 31.0326 31.3745 30.8754 30.5099 29.6132C29.5205 28.1661 28.2075 26.9964 26.8944 25.7851C24.0927 23.2053 22.211 22.914 19.4416 25.295C17.5599 26.9132 13.7133 30.9771 11.4155 34.3845C9.41826 37.3388 8.8126 39.7799 8.8311 39.9186Z" fill="#D4354D"/>
</svg>
